<mxfile host="app.diagrams.net" modified="2023-03-09T17:40:07.964Z" agent="5.0 (Windows NT 10.0; Win64; x64) AppleWebKit/537.36 (KHTML, like Gecko) Chrome/110.0.0.0 Safari/537.36" etag="mcpR3yK24WEG37VX90gV" version="21.0.2" type="github">
  <diagram name="P치gina-1" id="G5T-fPiHOSrerRTA-hHV">
    <mxGraphModel dx="1149" dy="617" grid="1" gridSize="10" guides="1" tooltips="1" connect="1" arrows="1" fold="1" page="1" pageScale="1" pageWidth="827" pageHeight="1169" math="0" shadow="0">
      <root>
        <mxCell id="0" />
        <mxCell id="1" parent="0" />
        <mxCell id="Ok_XQxHYGsmK986OcA6g-9" style="edgeStyle=orthogonalEdgeStyle;rounded=0;orthogonalLoop=1;jettySize=auto;html=1;exitX=1;exitY=0.5;exitDx=0;exitDy=0;entryX=0;entryY=0.5;entryDx=0;entryDy=0;" edge="1" parent="1" source="Ok_XQxHYGsmK986OcA6g-1" target="Ok_XQxHYGsmK986OcA6g-8">
          <mxGeometry relative="1" as="geometry" />
        </mxCell>
        <mxCell id="Ok_XQxHYGsmK986OcA6g-33" style="edgeStyle=orthogonalEdgeStyle;rounded=0;orthogonalLoop=1;jettySize=auto;html=1;exitX=1;exitY=0.5;exitDx=0;exitDy=0;entryX=0.5;entryY=0;entryDx=0;entryDy=0;" edge="1" parent="1" source="Ok_XQxHYGsmK986OcA6g-1" target="Ok_XQxHYGsmK986OcA6g-15">
          <mxGeometry relative="1" as="geometry">
            <Array as="points">
              <mxPoint x="180" y="120" />
              <mxPoint x="180" y="60" />
              <mxPoint x="550" y="60" />
            </Array>
          </mxGeometry>
        </mxCell>
        <mxCell id="Ok_XQxHYGsmK986OcA6g-1" value="Usuario importa &lt;br&gt;datos" style="ellipse;whiteSpace=wrap;html=1;aspect=fixed;fillColor=#dae8fc;strokeColor=#6c8ebf;" vertex="1" parent="1">
          <mxGeometry x="80" y="80" width="80" height="80" as="geometry" />
        </mxCell>
        <mxCell id="Ok_XQxHYGsmK986OcA6g-40" style="edgeStyle=orthogonalEdgeStyle;rounded=0;orthogonalLoop=1;jettySize=auto;html=1;exitX=1;exitY=0.5;exitDx=0;exitDy=0;entryX=0;entryY=0.5;entryDx=0;entryDy=0;" edge="1" parent="1" source="Ok_XQxHYGsmK986OcA6g-2" target="Ok_XQxHYGsmK986OcA6g-18">
          <mxGeometry relative="1" as="geometry" />
        </mxCell>
        <mxCell id="Ok_XQxHYGsmK986OcA6g-2" value="Selecci칩n de modelo" style="ellipse;whiteSpace=wrap;html=1;aspect=fixed;fillColor=#dae8fc;strokeColor=#6c8ebf;" vertex="1" parent="1">
          <mxGeometry x="80" y="240" width="80" height="80" as="geometry" />
        </mxCell>
        <mxCell id="Ok_XQxHYGsmK986OcA6g-13" style="edgeStyle=orthogonalEdgeStyle;rounded=0;orthogonalLoop=1;jettySize=auto;html=1;exitX=1;exitY=0.5;exitDx=0;exitDy=0;" edge="1" parent="1" source="Ok_XQxHYGsmK986OcA6g-8">
          <mxGeometry relative="1" as="geometry">
            <mxPoint x="490" y="120" as="targetPoint" />
          </mxGeometry>
        </mxCell>
        <mxCell id="Ok_XQxHYGsmK986OcA6g-8" value="data_processing&lt;br&gt;.import_data" style="rounded=0;whiteSpace=wrap;html=1;" vertex="1" parent="1">
          <mxGeometry x="280" y="90" width="120" height="60" as="geometry" />
        </mxCell>
        <mxCell id="Ok_XQxHYGsmK986OcA6g-11" value="data_path&lt;br&gt;goal_column" style="text;html=1;strokeColor=none;fillColor=none;align=center;verticalAlign=middle;whiteSpace=wrap;rounded=0;" vertex="1" parent="1">
          <mxGeometry x="190" y="80" width="60" height="30" as="geometry" />
        </mxCell>
        <mxCell id="Ok_XQxHYGsmK986OcA6g-14" value="X, y" style="text;html=1;strokeColor=none;fillColor=none;align=center;verticalAlign=middle;whiteSpace=wrap;rounded=0;" vertex="1" parent="1">
          <mxGeometry x="414" y="80" width="60" height="30" as="geometry" />
        </mxCell>
        <mxCell id="Ok_XQxHYGsmK986OcA6g-41" style="edgeStyle=orthogonalEdgeStyle;rounded=0;orthogonalLoop=1;jettySize=auto;html=1;exitX=1;exitY=0.5;exitDx=0;exitDy=0;entryX=0.5;entryY=0;entryDx=0;entryDy=0;" edge="1" parent="1" source="Ok_XQxHYGsmK986OcA6g-15" target="Ok_XQxHYGsmK986OcA6g-18">
          <mxGeometry relative="1" as="geometry" />
        </mxCell>
        <mxCell id="Ok_XQxHYGsmK986OcA6g-15" value="data_processing&lt;br&gt;.split_data" style="rounded=0;whiteSpace=wrap;html=1;" vertex="1" parent="1">
          <mxGeometry x="490" y="90" width="120" height="60" as="geometry" />
        </mxCell>
        <mxCell id="Ok_XQxHYGsmK986OcA6g-17" value="Train y test" style="text;html=1;strokeColor=none;fillColor=none;align=center;verticalAlign=middle;whiteSpace=wrap;rounded=0;" vertex="1" parent="1">
          <mxGeometry x="620" y="80" width="60" height="30" as="geometry" />
        </mxCell>
        <mxCell id="Ok_XQxHYGsmK986OcA6g-42" style="edgeStyle=orthogonalEdgeStyle;rounded=0;orthogonalLoop=1;jettySize=auto;html=1;exitX=1;exitY=0.5;exitDx=0;exitDy=0;entryX=1;entryY=0.5;entryDx=0;entryDy=0;" edge="1" parent="1" source="Ok_XQxHYGsmK986OcA6g-18" target="Ok_XQxHYGsmK986OcA6g-37">
          <mxGeometry relative="1" as="geometry" />
        </mxCell>
        <mxCell id="Ok_XQxHYGsmK986OcA6g-18" value="MODELO" style="rounded=0;whiteSpace=wrap;html=1;" vertex="1" parent="1">
          <mxGeometry x="280" y="230" width="260" height="100" as="geometry" />
        </mxCell>
        <mxCell id="Ok_XQxHYGsmK986OcA6g-26" style="edgeStyle=orthogonalEdgeStyle;rounded=0;orthogonalLoop=1;jettySize=auto;html=1;entryX=0.5;entryY=1;entryDx=0;entryDy=0;" edge="1" parent="1" source="Ok_XQxHYGsmK986OcA6g-25" target="Ok_XQxHYGsmK986OcA6g-18">
          <mxGeometry relative="1" as="geometry" />
        </mxCell>
        <mxCell id="Ok_XQxHYGsmK986OcA6g-25" value="Selecci칩n de parametros" style="ellipse;whiteSpace=wrap;html=1;aspect=fixed;fillColor=#dae8fc;strokeColor=#6c8ebf;" vertex="1" parent="1">
          <mxGeometry x="80" y="480" width="80" height="80" as="geometry" />
        </mxCell>
        <mxCell id="Ok_XQxHYGsmK986OcA6g-29" value="model_select" style="text;html=1;strokeColor=none;fillColor=none;align=center;verticalAlign=middle;whiteSpace=wrap;rounded=0;" vertex="1" parent="1">
          <mxGeometry x="180" y="250" width="60" height="30" as="geometry" />
        </mxCell>
        <mxCell id="Ok_XQxHYGsmK986OcA6g-34" value="test_size" style="text;html=1;strokeColor=none;fillColor=none;align=center;verticalAlign=middle;whiteSpace=wrap;rounded=0;" vertex="1" parent="1">
          <mxGeometry x="320" y="30" width="60" height="30" as="geometry" />
        </mxCell>
        <mxCell id="Ok_XQxHYGsmK986OcA6g-35" value="" style="shape=flexArrow;endArrow=classic;html=1;rounded=0;exitX=0.5;exitY=1;exitDx=0;exitDy=0;entryX=0.5;entryY=0;entryDx=0;entryDy=0;" edge="1" parent="1" source="Ok_XQxHYGsmK986OcA6g-1" target="Ok_XQxHYGsmK986OcA6g-2">
          <mxGeometry width="50" height="50" relative="1" as="geometry">
            <mxPoint x="150" y="210" as="sourcePoint" />
            <mxPoint x="200" y="160" as="targetPoint" />
          </mxGeometry>
        </mxCell>
        <mxCell id="Ok_XQxHYGsmK986OcA6g-36" value="" style="shape=flexArrow;endArrow=classic;html=1;rounded=0;exitX=0.5;exitY=1;exitDx=0;exitDy=0;entryX=0.5;entryY=0;entryDx=0;entryDy=0;" edge="1" parent="1" source="Ok_XQxHYGsmK986OcA6g-2" target="Ok_XQxHYGsmK986OcA6g-25">
          <mxGeometry width="50" height="50" relative="1" as="geometry">
            <mxPoint x="130" y="170" as="sourcePoint" />
            <mxPoint x="130" y="250" as="targetPoint" />
          </mxGeometry>
        </mxCell>
        <mxCell id="Ok_XQxHYGsmK986OcA6g-37" value="Presentaci칩n de resultados" style="ellipse;whiteSpace=wrap;html=1;aspect=fixed;fillColor=#dae8fc;strokeColor=#6c8ebf;" vertex="1" parent="1">
          <mxGeometry x="80" y="680" width="80" height="80" as="geometry" />
        </mxCell>
        <mxCell id="Ok_XQxHYGsmK986OcA6g-38" value="" style="shape=flexArrow;endArrow=classic;html=1;rounded=0;entryX=0.5;entryY=0;entryDx=0;entryDy=0;exitX=0.5;exitY=1;exitDx=0;exitDy=0;" edge="1" parent="1" target="Ok_XQxHYGsmK986OcA6g-37" source="Ok_XQxHYGsmK986OcA6g-25">
          <mxGeometry width="50" height="50" relative="1" as="geometry">
            <mxPoint x="180" y="580" as="sourcePoint" />
            <mxPoint x="130" y="450" as="targetPoint" />
          </mxGeometry>
        </mxCell>
      </root>
    </mxGraphModel>
  </diagram>
</mxfile>
